<svg width="32" height="32" viewBox="0 0 32 32" fill="none" xmlns="http://www.w3.org/2000/svg">
<g clip-path="url(#clip0_1_2)">
<rect width="32" height="32" rx="10" fill="black"/>
<path d="M7.22 6.23V8.12C6.78667 8.12 6.40667 8.16 6.08 8.24C5.75333 8.32 5.50333 8.46 5.33 8.66C5.16333 8.86 5.09667 9.14333 5.13 9.51L5.48 12.86C5.55333 13.54 5.48667 14.0967 5.28 14.53C5.08 14.9567 4.76667 15.2867 4.34 15.52C3.91333 15.7467 3.40333 15.9067 2.81 16C3.43667 16.1 3.96 16.2633 4.38 16.49C4.80667 16.71 5.11333 17.0333 5.3 17.46C5.49333 17.88 5.55333 18.44 5.48 19.14L5.13 22.49C5.09667 22.85 5.16333 23.13 5.33 23.33C5.50333 23.5367 5.75333 23.68 6.08 23.76C6.41333 23.84 6.79333 23.88 7.22 23.88V25.77C6.42667 25.77 5.73333 25.71 5.14 25.59C4.54667 25.47 4.05667 25.2733 3.67 25C3.28333 24.7333 3.00667 24.3767 2.84 23.93C2.68 23.4833 2.63333 22.9333 2.7 22.28L3.03 19.09C3.08333 18.5967 3.01333 18.2033 2.82 17.91C2.62667 17.61 2.31 17.3967 1.87 17.27C1.43667 17.1367 0.876667 17.07 0.19 17.07V14.93C0.87 14.93 1.43 14.8667 1.87 14.74C2.31 14.6067 2.62667 14.3933 2.82 14.1C3.01333 13.8 3.08333 13.4067 3.03 12.92L2.7 9.73C2.62667 9.07 2.67 8.51667 2.83 8.07C2.99667 7.62333 3.27333 7.26667 3.66 7C4.04667 6.72667 4.53667 6.53 5.13 6.41C5.73 6.29 6.42667 6.23 7.22 6.23ZM20.7722 9.17L21.5522 23H19.1122L18.8522 16.63C18.8322 16.0967 18.8189 15.6033 18.8122 15.15C18.8122 14.69 18.8155 14.2567 18.8222 13.85C18.8289 13.4367 18.8389 13.04 18.8522 12.66C18.8722 12.28 18.8955 11.9067 18.9222 11.54L17.0922 20.6H14.8722L12.9122 11.54C12.9389 11.8933 12.9622 12.2633 12.9822 12.65C13.0022 13.0367 13.0155 13.44 13.0222 13.86C13.0355 14.28 13.0422 14.7233 13.0422 15.19C13.0489 15.6567 13.0422 16.1433 13.0222 16.65L12.8322 23H10.4322L11.2122 9.17H14.2522L16.0322 18.3L17.7322 9.17H20.7722ZM24.7644 6.23C25.5577 6.23 26.251 6.29 26.8444 6.41C27.4377 6.53 27.9277 6.72667 28.3144 7C28.701 7.26667 28.9777 7.62333 29.1444 8.07C29.311 8.51667 29.3577 9.06667 29.2844 9.72L28.9544 12.92C28.901 13.4067 28.9777 13.8 29.1844 14.1C29.391 14.3933 29.711 14.6067 30.1444 14.74C30.5844 14.8667 31.1344 14.93 31.7944 14.93V17.07C31.141 17.07 30.5944 17.1367 30.1544 17.27C29.7144 17.3967 29.391 17.61 29.1844 17.91C28.9777 18.2033 28.901 18.5967 28.9544 19.09L29.2844 22.27C29.3577 22.93 29.311 23.4833 29.1444 23.93C28.9844 24.3767 28.711 24.7333 28.3244 25C27.9377 25.2733 27.4444 25.47 26.8444 25.59C26.251 25.71 25.5577 25.77 24.7644 25.77V23.88C25.1977 23.88 25.5777 23.84 25.9044 23.76C26.231 23.68 26.4777 23.5367 26.6444 23.33C26.8177 23.13 26.8877 22.85 26.8544 22.49L26.5044 19.14C26.431 18.44 26.4944 17.88 26.6944 17.46C26.901 17.0333 27.2244 16.7067 27.6644 16.48C28.1044 16.2533 28.6377 16.0967 29.2644 16.01C28.6177 15.91 28.0744 15.7467 27.6344 15.52C27.1944 15.2867 26.8777 14.9567 26.6844 14.53C26.491 14.1033 26.431 13.5467 26.5044 12.86L26.8544 9.51C26.8877 9.14333 26.8177 8.86 26.6444 8.66C26.4777 8.46 26.231 8.32 25.9044 8.24C25.5777 8.16 25.1977 8.12 24.7644 8.12V6.23Z" fill="white"/>
</g>
<defs>
<clipPath id="clip0_1_2">
<rect width="32" height="32" rx="10" fill="white"/>
</clipPath>
</defs>
</svg>
